<svg xmlns="http://www.w3.org/2000/svg" xmlns:xlink="http://www.w3.org/1999/xlink" width="500" zoomAndPan="magnify" viewBox="0 0 375 374.999991" height="500" preserveAspectRatio="xMidYMid meet" version="1.0"><defs><g/><clipPath id="id1"><path d="M 55.738281 2.898438 L 318.988281 2.898438 L 318.988281 371.898438 L 55.738281 371.898438 Z M 55.738281 2.898438 " clip-rule="nonzero"/></clipPath></defs><g clip-path="url(#id1)"><path fill="#f62e2e" d="M 153.769531 2.898438 C 153.769531 2.898438 187.820312 37.285156 157.105469 72.933594 C 120.15625 115.796875 89.53125 106.1875 95.484375 147.660156 C 101.980469 193.03125 100.871094 199.53125 88.628906 202.320312 C 68.121094 206.972656 73.203125 169.628906 73.203125 169.628906 C 64.296875 180.105469 57.761719 202.695312 56.179688 229.660156 C 55.898438 233.222656 55.746094 236.800781 55.746094 240.378906 C 55.746094 313.109375 114.675781 372.066406 187.367188 372.066406 C 260.0625 372.066406 318.992188 313.109375 318.992188 240.378906 C 318.992188 238.042969 318.933594 235.726562 318.785156 233.410156 C 317.992188 207.597656 312.699219 183.648438 304.265625 166.21875 C 301.949219 213.492188 285.335938 203.28125 284.300781 194.386719 C 281.550781 170.855469 292.171875 159.097656 278.292969 140.234375 C 269.988281 128.949219 262.117188 108.242188 279.628906 90.042969 C 279.628906 90.042969 253.527344 89.851562 254 124.859375 C 254 124.859375 242.8125 33.875 153.769531 2.898438 Z M 153.769531 2.898438 " fill-opacity="1" fill-rule="nonzero"/></g><g fill="#ffffff" fill-opacity="1"><g transform="translate(95.250405, 284.474614)"><g><path d="M 5.859375 9.28125 C 6.785156 4.09375 8.066406 -1.554688 9.703125 -7.671875 C 11.335938 -13.796875 13.96875 -22.40625 17.59375 -33.5 L 10.5625 -32.75 C 10.632812 -35.875 13.585938 -38.039062 19.421875 -39.25 C 22.046875 -47.289062 25.066406 -56.21875 28.484375 -66.03125 C 28.554688 -66.238281 28.820312 -67.019531 29.28125 -68.375 C 29.738281 -69.726562 29.96875 -71.046875 29.96875 -72.328125 C 29.96875 -72.890625 29.878906 -73.273438 29.703125 -73.484375 C 29.523438 -73.703125 29.117188 -73.8125 28.484375 -73.8125 C 26.273438 -73.8125 24.15625 -72.671875 22.125 -70.390625 C 20.101562 -68.117188 18.453125 -65.382812 17.171875 -62.1875 C 15.890625 -58.988281 15.25 -56.179688 15.25 -53.765625 C 15.25 -52.410156 15.425781 -51.203125 15.78125 -50.140625 C 13.582031 -50.140625 11.96875 -50.6875 10.9375 -51.78125 C 9.90625 -52.882812 9.390625 -54.363281 9.390625 -56.21875 C 9.390625 -59.269531 10.578125 -62.414062 12.953125 -65.65625 C 15.335938 -68.894531 18.238281 -71.5625 21.65625 -73.65625 C 25.070312 -75.75 28.09375 -76.796875 30.71875 -76.796875 C 32.5 -76.796875 33.757812 -76.316406 34.5 -75.359375 C 35.25 -74.398438 35.625 -73.175781 35.625 -71.6875 C 35.625 -70.476562 35.34375 -68.945312 34.78125 -67.09375 L 26.453125 -40 C 29.015625 -40.144531 31.078125 -40.21875 32.640625 -40.21875 C 38.191406 -40.21875 44.238281 -39.894531 50.78125 -39.25 C 52.976562 -46.582031 55.085938 -53.269531 57.109375 -59.3125 C 59.140625 -65.351562 60.617188 -69.332031 61.546875 -71.25 C 63.253906 -74.945312 65.210938 -76.796875 67.421875 -76.796875 C 65.992188 -73.035156 64.265625 -67.671875 62.234375 -60.703125 C 60.210938 -53.734375 58.207031 -46.441406 56.21875 -38.828125 C 56.925781 -38.828125 58.0625 -38.753906 59.625 -38.609375 C 61.757812 -38.472656 63.289062 -38.40625 64.21875 -38.40625 C 62.789062 -36.90625 61.398438 -35.957031 60.046875 -35.5625 C 58.703125 -35.175781 57.101562 -34.984375 55.25 -34.984375 C 53.757812 -28.867188 52.660156 -24 51.953125 -20.375 C 49.597656 -9.207031 48.421875 -0.601562 48.421875 5.4375 C 48.421875 6.71875 48.492188 8 48.640625 9.28125 C 45.941406 9 44.039062 8.234375 42.9375 6.984375 C 41.832031 5.742188 41.28125 3.734375 41.28125 0.953125 C 41.28125 -3.171875 42.132812 -8.535156 43.84375 -15.140625 C 44.976562 -19.835938 46.863281 -26.414062 49.5 -34.875 C 43.8125 -34.875 38.992188 -34.820312 35.046875 -34.71875 C 31.097656 -34.613281 27.628906 -34.421875 24.640625 -34.140625 C 18.523438 -14.867188 14.722656 -2.671875 13.234375 2.453125 C 12.515625 4.722656 11.441406 6.425781 10.015625 7.5625 C 8.597656 8.707031 7.210938 9.28125 5.859375 9.28125 Z M 5.859375 9.28125 "/></g></g></g><g fill="#ffffff" fill-opacity="1"><g transform="translate(161.054922, 284.474614)"><g><path d="M 22.71875 9.28125 C 18.664062 9.28125 15.09375 8.195312 12 6.03125 C 8.90625 3.863281 6.503906 0.769531 4.796875 -3.25 C 3.085938 -7.269531 2.234375 -11.910156 2.234375 -17.171875 C 2.234375 -26.066406 4.488281 -35.171875 9 -44.484375 C 13.519531 -53.796875 19.226562 -61.492188 26.125 -67.578125 C 33.03125 -73.660156 39.789062 -76.703125 46.40625 -76.703125 C 49.101562 -76.703125 51.234375 -76.273438 52.796875 -75.421875 L 51.625 -75.421875 C 45.726562 -75.421875 39.648438 -72.269531 33.390625 -65.96875 C 27.128906 -59.675781 21.9375 -51.835938 17.8125 -42.453125 C 13.6875 -33.066406 11.625 -24.144531 11.625 -15.6875 C 11.625 -9.5 12.816406 -4.394531 15.203125 -0.375 C 17.585938 3.644531 21.160156 5.65625 25.921875 5.65625 C 32.253906 5.65625 38.03125 2.546875 43.25 -3.671875 C 48.476562 -9.898438 52.601562 -17.671875 55.625 -26.984375 C 58.644531 -36.304688 60.15625 -45.269531 60.15625 -53.875 C 60.15625 -57.5 59.765625 -60.859375 58.984375 -63.953125 C 58.203125 -67.046875 56.992188 -68.59375 55.359375 -68.59375 C 53.722656 -68.59375 51.890625 -67.289062 49.859375 -64.6875 C 47.835938 -62.09375 45.988281 -58.984375 44.3125 -55.359375 C 42.644531 -51.734375 41.53125 -48.535156 40.96875 -45.765625 C 39.257812 -46.191406 37.976562 -46.863281 37.125 -47.78125 C 36.269531 -48.707031 35.84375 -49.773438 35.84375 -50.984375 C 35.84375 -53.398438 36.960938 -56.242188 39.203125 -59.515625 C 41.441406 -62.796875 44.085938 -65.609375 47.140625 -67.953125 C 50.203125 -70.296875 52.875 -71.46875 55.15625 -71.46875 C 58.425781 -71.46875 60.753906 -69.367188 62.140625 -65.171875 C 63.523438 -60.984375 64.21875 -56.21875 64.21875 -50.875 C 64.21875 -38.71875 62.046875 -28.070312 57.703125 -18.9375 C 53.367188 -9.800781 47.960938 -2.816406 41.484375 2.015625 C 35.015625 6.859375 28.757812 9.28125 22.71875 9.28125 Z M 22.71875 9.28125 "/></g></g></g><g fill="#ffffff" fill-opacity="1"><g transform="translate(227.49935, 284.474614)"><g><path d="M 19.953125 9.28125 C 16.890625 9.28125 14.71875 8.617188 13.4375 7.296875 C 12.15625 5.984375 11.515625 4.117188 11.515625 1.703125 C 11.515625 -0.140625 11.851562 -2.285156 12.53125 -4.734375 C 13.207031 -7.191406 14.1875 -10.238281 15.46875 -13.875 C 18.457031 -22.476562 21.976562 -32.078125 26.03125 -42.671875 C 30.082031 -53.265625 33.816406 -62.222656 37.234375 -69.546875 C 29.546875 -69.410156 23.78125 -69.21875 19.9375 -68.96875 C 16.101562 -68.71875 11.910156 -68.203125 7.359375 -67.421875 C 7.640625 -70.765625 10.054688 -73.160156 14.609375 -74.609375 C 19.160156 -76.066406 25.421875 -76.796875 33.390625 -76.796875 C 39.148438 -76.796875 46.007812 -76.375 53.96875 -75.53125 C 56.320312 -75.238281 58.707031 -74.984375 61.125 -74.765625 C 63.539062 -74.554688 65.742188 -74.453125 67.734375 -74.453125 C 65.460938 -72.460938 62.867188 -71.128906 59.953125 -70.453125 C 57.035156 -69.773438 53.550781 -69.4375 49.5 -69.4375 L 41.921875 -69.546875 C 36.085938 -54.972656 30.503906 -38.015625 25.171875 -18.671875 L 24.21875 -15.140625 C 22.582031 -9.171875 21.441406 -4.707031 20.796875 -1.75 C 20.160156 1.195312 19.84375 4.09375 19.84375 6.9375 C 19.84375 8 19.878906 8.78125 19.953125 9.28125 Z M 19.953125 9.28125 "/></g></g></g></svg>